<?xml version="1.0" encoding="UTF-8"?><!DOCTYPE svg PUBLIC "-//W3C//DTD SVG 1.1//EN" "http://www.w3.org/Graphics/SVG/1.1/DTD/svg11.dtd"><svg xmlns="http://www.w3.org/2000/svg"><symbol id="icon-arr-sld" viewBox="0 0 129 129">
    <path d="M88.6 121.3c.8.8 1.8 1.2 2.9 1.2s2.1-.4 2.9-1.2c1.6-1.6 1.6-4.2 0-5.8l-51-51 51-51c1.6-1.6 1.6-4.2 0-5.8s-4.2-1.6-5.8 0l-54 53.9c-1.6 1.6-1.6 4.2 0 5.8l54 53.9z"/>
</symbol><symbol id="icon-zoom" viewBox="0 0 244.487 244.487">
    <g>
        <path d="M241.877 230.131l-72.929-72.929c13.973-16.67 22.465-38.004 22.465-61.061 0-52.204-43.503-95.707-95.707-95.707S0 43.938 0 96.142s43.503 95.707 95.707 95.707c22.621 0 43.573-8.179 60.104-21.682l72.145 72.145c1.74 1.74 3.48 1.74 6.96 1.74s5.22 0 6.96-1.74c3.482-3.48 3.482-8.7.001-12.181zm-146.17-55.683c-43.503 0-78.305-34.802-78.305-78.305s34.802-78.305 78.305-78.305 78.305 34.802 78.305 78.305-34.802 78.305-78.305 78.305z"/>
        <path d="M121.809 87.442h-17.401V70.041c0-5.22-3.48-8.701-8.701-8.701-5.22 0-8.701 3.48-8.701 8.701v17.401H69.605c-5.22 0-8.701 3.48-8.701 8.701s3.48 8.701 8.701 8.701h17.401v17.401c0 5.22 3.48 8.701 8.701 8.701 5.22 0 8.701-3.48 8.701-8.701v-17.401h17.401c5.22 0 8.701-3.48 8.701-8.701s-3.481-8.701-8.701-8.701z"/>
    </g>
</symbol></svg>