<svg xmlns="http://www.w3.org/2000/svg" width="65" height="41" viewBox="0 0 65 41"><path fill="#f1e7de" d="M.57 0v20.15l8.29 10.34L.57 40.84H17.7l8.28-10.35z"/><path fill="#eadfdc" d="M.57 0v20.15l8.29 10.34L.57 40.84H17.7l8.28-10.35z"/><path fill="#f1e7de" d="M19.9 0v20.15l8.3 10.34-8.3 10.35h17.13l8.29-10.35z"/><path fill="#d1e2c3" d="M19.9 0v20.15l8.3 10.34-8.3 10.35h17.13l8.29-10.35z"/><path fill="#fff" d="M39.24 0v20.15l8.29 10.34-8.29 10.35h17.13l8.29-10.35z"/><path fill="#b3d9da" d="M39.24 0v20.15l8.29 10.34-8.29 10.35h17.13l8.29-10.35z"/></svg>